<svg xmlns="http://www.w3.org/2000/svg" width="64.001" height="64">
  <path fill="none" d="M0 0H64.001V64H0z"/>
  <path fill="none" d="M0.002 0H64.002V64H0.002z"/>
  <g>
    <path fill="#CC4C4C" d="M26.003,50v2.35c0,3.301,2.7,5.9,6,5.9c3.3,0,6-2.6,6-5.9V50H26.003z"/>
    <path opacity=".15" d="M26.003,52.351c0,0.221,0.014,0.437,0.037,0.65h11.926c0.023-0.214,0.037-0.43,0.037-0.65V50h-12V52.351z"/>
    <linearGradient id="a" gradientUnits="userSpaceOnUse" x1="7.0562" y1="-1490.1924" x2="7.0562" y2="-1443.1924" gradientTransform="matrix(1 0 0 -1 24.9448 -1439.1914)">
      <stop offset="0" stop-color="#f05c51"/>
      <stop offset="1" stop-color="#f37d74"/>
    </linearGradient>
    <path fill="url(#a)" d="M56.001,48.901l-0.2-0.801l-4.3-21.199c-1.2-7.9-6.8-15.2-14.5-17.101v-0.8c0-3.266-2.401-5-5-5 s-5,1.931-5,5.2v0.8c-7.7,1.9-13.3,9-14.5,16.9l-4.3,21.199l0,0l-0.2,0.801c-0.2,1.199,0.8,2.1,2,2.1h44 C55.201,51.001,56.201,50.101,56.001,48.901z"/>
  </g>
</svg>
