<svg xmlns="http://www.w3.org/2000/svg" width="64.001" height="64">
  <path fill="none" d="M0 0H64.001V64H0z"/>
  <path fill="#FFB356" d="M54.001,48c0,1.101-0.9,2-2,2h-40c-1.1,0-2-0.899-2-2V11c0-1.1,0.9-2,2-2h40c1.1,0,2,0.9,2,2V48z" opacity=".8"/>
  <linearGradient id="a" gradientUnits="userSpaceOnUse" x1="88.6415" y1="-414.6195" x2="88.6415" y2="-400.5762" gradientTransform="matrix(9.3013 0 0 -9.3013 -792.4799 -3730.6077)">
    <stop offset="0" stop-color="#ff9a1e"/>
    <stop offset="1" stop-color="#ffb356"/>
  </linearGradient>
  <path fill="url(#a)" d="M58.001,58c0,1.101-0.9,2-2,2h-48c-1.1,0-2-0.899-2-2V16c0-1.1,0.9-2,2-2h48c1.1,0,2,0.9,2,2V58z"/>
  <path fill="#FFD7A5" d="M14.001,9V6c0-1.1,0.9-2,2-2h32c1.1,0,2,0.9,2,2v3"/>
  <path fill="none" d="M0.002 0H64.002V64H0.002z"/>
  <path opacity=".9" fill="#FFF" d="M21.001,32h6v-6h-6V32z M29.001,32h6v-6h-6V32z M37.001,26v6h6v-6H37.001z M21.001,40h6v-6 h-6V40z M29.001,40h6v-6h-6V40z M37.001,40h6v-6h-6V40z M21.001,48h6v-6h-6V48z M29.001,48h6v-6h-6V48z M37.001,48h6v-6h-6V48z"/>
</svg>
